<svg xmlns="http://www.w3.org/2000/svg" xmlns:xlink="http://www.w3.org/1999/xlink" width="175" zoomAndPan="magnify" viewBox="0 0 375 374.999991" height="110" preserveAspectRatio="xMidYMid meet" version="1.0"><defs><g/><clipPath id="fe04ef9bf0"><path d="M 0 37.5 L 108 37.5 L 108 203.25 L 0 203.25 Z M 0 37.5 " clip-rule="nonzero"/></clipPath></defs><g clip-path="url(#fe04ef9bf0)"><path fill="#eb690a" d="M 107.117188 107.460938 L 104.308594 82.597656 C 103.808594 78.242188 100.117188 74.929688 95.730469 74.929688 L 81.769531 74.929688 L 81.769531 67.835938 C 81.769531 51.183594 68.265625 37.652344 51.648438 37.652344 C 35.03125 37.652344 21.53125 51.183594 21.53125 67.835938 L 21.53125 74.929688 L 7.566406 74.929688 C 3.183594 74.929688 -0.511719 78.242188 -1.011719 82.597656 L -13.628906 193.574219 C -14.242188 198.894531 -10.089844 203.519531 -4.742188 203.519531 L -0.0507812 203.519531 C 19.335938 120.144531 81.460938 108.578125 107.117188 107.460938 Z M 77.921875 83.988281 C 80.039062 83.988281 81.769531 85.722656 81.769531 87.839844 C 81.769531 89.960938 80.039062 91.695312 77.921875 91.695312 C 75.808594 91.695312 74.074219 89.960938 74.074219 87.839844 C 74.074219 85.722656 75.808594 83.988281 77.921875 83.988281 Z M 29.222656 67.875 C 29.222656 55.5 39.261719 45.402344 51.648438 45.402344 C 64.035156 45.402344 74.074219 55.5 74.074219 67.875 L 74.074219 74.96875 L 29.222656 74.96875 Z M 25.375 83.988281 C 27.492188 83.988281 29.222656 85.722656 29.222656 87.839844 C 29.222656 89.960938 27.492188 91.695312 25.375 91.695312 C 23.261719 91.695312 21.53125 89.960938 21.53125 87.839844 C 21.53125 85.722656 23.261719 83.988281 25.375 83.988281 Z M 25.375 83.988281 " fill-opacity="1" fill-rule="nonzero"/></g><g fill="#545454" fill-opacity="1"><g transform="translate(30.598009, 179.841567)"><g><path d="M 20.417969 -40.953125 L 4.679688 -40.953125 L 4.679688 0 L 13.515625 0 L 13.515625 -12.753906 L 20.417969 -12.753906 C 28.667969 -12.753906 34.867188 -18.78125 34.867188 -26.851562 C 34.867188 -34.925781 28.609375 -40.953125 20.417969 -40.953125 Z M 20.007812 -20.945312 L 13.515625 -20.945312 L 13.515625 -32.703125 L 20.007812 -32.703125 C 23.519531 -32.703125 25.917969 -30.246094 25.917969 -26.851562 C 25.917969 -23.460938 23.519531 -20.945312 20.007812 -20.945312 Z M 20.007812 -20.945312 "/></g></g></g><g fill="#545454" fill-opacity="1"><g transform="translate(66.980478, 179.841567)"><g><path d="M 4.09375 -35.804688 L 12.578125 -35.804688 L 12.578125 -43.703125 L 4.09375 -43.703125 Z M 4.09375 0 L 12.636719 0 L 12.636719 -31.589844 L 4.09375 -31.589844 Z M 4.09375 0 "/></g></g></g><g fill="#545454" fill-opacity="1"><g transform="translate(83.709401, 179.841567)"><g><path d="M 13.980469 -7.839844 L 27.320312 -30.421875 L 27.320312 -31.589844 L 2.515625 -31.589844 L 2.515625 -23.8125 L 14.683594 -23.8125 L 1.171875 -0.9375 L 1.171875 0 L 27.320312 0 L 27.320312 -7.839844 Z M 13.980469 -7.839844 "/></g></g></g><g fill="#545454" fill-opacity="1"><g transform="translate(112.955765, 179.841567)"><g><path d="M 13.980469 -7.839844 L 27.320312 -30.421875 L 27.320312 -31.589844 L 2.515625 -31.589844 L 2.515625 -23.8125 L 14.683594 -23.8125 L 1.171875 -0.9375 L 1.171875 0 L 27.320312 0 L 27.320312 -7.839844 Z M 13.980469 -7.839844 "/></g></g></g><g fill="#545454" fill-opacity="1"><g transform="translate(142.202129, 179.841567)"><g><path d="M 29.835938 -31.589844 L 28.960938 -28.609375 C 26.210938 -31.007812 22.640625 -32.46875 18.546875 -32.46875 C 9.066406 -32.46875 1.988281 -25.332031 1.988281 -15.796875 C 1.988281 -6.261719 9.066406 0.9375 18.546875 0.9375 C 22.582031 0.9375 26.09375 -0.46875 28.785156 -2.867188 L 29.542969 0 L 36.214844 0 L 36.214844 -31.589844 Z M 19.246094 -7.136719 C 14.273438 -7.136719 10.648438 -10.882812 10.648438 -15.796875 C 10.648438 -20.769531 14.273438 -24.453125 19.246094 -24.453125 C 24.21875 -24.453125 27.847656 -20.769531 27.847656 -15.796875 C 27.847656 -10.824219 24.21875 -7.136719 19.246094 -7.136719 Z M 19.246094 -7.136719 "/></g></g></g><g fill="#545454" fill-opacity="1"><g transform="translate(182.562115, 179.841567)"><g><path d="M 23.460938 0.9375 C 33.582031 0.9375 41.539062 -5.851562 43.410156 -15.972656 L 34.457031 -15.972656 C 32.996094 -10.824219 28.84375 -7.546875 23.460938 -7.546875 C 16.496094 -7.546875 11.292969 -13.046875 11.292969 -20.417969 C 11.292969 -27.789062 16.496094 -33.347656 23.460938 -33.347656 C 28.609375 -33.347656 32.703125 -30.304688 34.398438 -25.507812 L 43.234375 -25.507812 C 41.363281 -35.21875 33.40625 -41.828125 23.460938 -41.828125 C 11.40625 -41.828125 2.28125 -32.585938 2.28125 -20.417969 C 2.28125 -8.308594 11.40625 0.9375 23.460938 0.9375 Z M 23.460938 0.9375 "/></g></g></g><g fill="#545454" fill-opacity="1"><g transform="translate(227.66, 179.841567)"><g><path d="M 20.242188 -31.765625 C 16.148438 -31.765625 13.339844 -30.480469 11.058594 -27.671875 L 9.535156 -31.589844 L 4.09375 -31.589844 L 4.09375 0 L 12.636719 0 L 12.636719 -16.382812 C 12.636719 -21.527344 14.507812 -23.695312 19.304688 -23.695312 L 23.050781 -23.695312 L 23.050781 -31.765625 Z M 20.242188 -31.765625 "/></g></g></g><g fill="#545454" fill-opacity="1"><g transform="translate(251.466537, 179.841567)"><g><path d="M 29.835938 -31.589844 L 28.960938 -28.609375 C 26.210938 -31.007812 22.640625 -32.46875 18.546875 -32.46875 C 9.066406 -32.46875 1.988281 -25.332031 1.988281 -15.796875 C 1.988281 -6.261719 9.066406 0.9375 18.546875 0.9375 C 22.582031 0.9375 26.09375 -0.46875 28.785156 -2.867188 L 29.542969 0 L 36.214844 0 L 36.214844 -31.589844 Z M 19.246094 -7.136719 C 14.273438 -7.136719 10.648438 -10.882812 10.648438 -15.796875 C 10.648438 -20.769531 14.273438 -24.453125 19.246094 -24.453125 C 24.21875 -24.453125 27.847656 -20.769531 27.847656 -15.796875 C 27.847656 -10.824219 24.21875 -7.136719 19.246094 -7.136719 Z M 19.246094 -7.136719 "/></g></g></g><g fill="#545454" fill-opacity="1"><g transform="translate(291.826523, 179.841567)"><g><path d="M 23.402344 -31.125 L 15.269531 -31.125 L 15.269531 -33.816406 C 15.269531 -36.039062 16.4375 -37.207031 18.722656 -37.207031 L 23.34375 -37.207031 L 23.34375 -43.9375 L 17.023438 -43.9375 C 10.355469 -43.9375 6.960938 -40.074219 6.960938 -33.992188 L 6.960938 -31.125 L 1.460938 -31.125 L 1.460938 -24.101562 L 6.902344 -24.101562 L 6.902344 0 L 15.445312 0 L 15.445312 -24.101562 L 23.402344 -24.101562 Z M 23.402344 -31.125 "/></g></g></g><g fill="#545454" fill-opacity="1"><g transform="translate(316.101005, 179.841567)"><g><path d="M 19.539062 -7.605469 C 16.382812 -7.605469 14.625 -9.359375 14.625 -12.402344 L 14.625 -24.6875 L 23.226562 -24.6875 L 23.226562 -31.589844 L 14.507812 -31.589844 L 14.507812 -39.78125 L 12.871094 -39.78125 L 0.410156 -26.558594 L 0.410156 -24.6875 L 6.085938 -24.6875 L 6.085938 -11.234375 C 6.085938 -4.269531 10.355469 0 17.316406 0 L 23.402344 0 L 23.402344 -7.605469 Z M 19.539062 -7.605469 "/></g></g></g></svg>